<svg width="350" height="350" viewBox="0 0 350 350" fill="none" xmlns="http://www.w3.org/2000/svg">
<path fill-rule="evenodd" clip-rule="evenodd" d="M350 175C350 271.65 271.65 350 175 350C78.3502 350 0 271.65 0 175C0 78.3502 78.3502 0 175 0C271.65 0 350 78.3502 350 175ZM288.75 175C288.75 237.822 237.822 288.75 175 288.75C112.178 288.75 61.25 237.822 61.25 175C61.25 112.178 112.178 61.25 175 61.25C200.202 61.25 223.49 69.4458 242.343 83.3176L267.84 57.8211C271.745 53.9158 278.077 53.9158 281.982 57.8211L292.588 68.4277C296.494 72.3329 296.494 78.6645 292.588 82.5698L267.029 108.13C280.69 126.899 288.75 150.008 288.75 175Z" fill="#1D3E53"/>
<circle cx="175" cy="175" r="87.5" fill="#1D3E53"/>
<path fill-rule="evenodd" clip-rule="evenodd" d="M244.529 228.13C255.802 213.4 262.5 194.982 262.5 175C262.5 126.675 223.325 87.5 175 87.5C134.083 87.5 99.7248 115.586 90.1533 153.531C105.734 130.579 132.044 115.5 161.875 115.5C209.717 115.5 248.5 154.283 248.5 202.125C248.5 211.186 247.109 219.921 244.529 228.13Z" fill="#E4EFE7"/>
</svg>
