<svg width="303" height="350" viewBox="0 0 303 350" fill="none" xmlns="http://www.w3.org/2000/svg">
<path fill-rule="evenodd" clip-rule="evenodd" d="M302.705 87.2669L151.554 0L0 87.5V262.5L151.554 350L302.705 262.733L281.054 250.233L151.554 325L21.6506 250V100L151.554 25L281.054 99.7669L302.705 87.2669Z" fill="#254B62"/>
<path fill-rule="evenodd" clip-rule="evenodd" d="M151.554 50L258.507 111.749L239.59 122.824L151.554 71L63.2198 123L151.554 175L134.644 184.954L43.3013 131.475V112.5L151.554 50ZM151.554 175L168.049 165.29L259.808 219.013V237.5L151.554 300L51.0628 241.981L69.9169 230.942L151.554 279L239.889 227L151.554 175Z" fill="#F8A978"/>
</svg>
